<?xml version="1.0" encoding="UTF-8" standalone="no"?>
<!-- Created with Inkscape (http://www.inkscape.org/) -->

<svg
   width="88.343643mm"
   height="81.19191mm"
   viewBox="0 0 88.343643 81.19191"
   version="1.1"
   id="svg1"
   xml:space="preserve"
   inkscape:version="1.3 (0e150ed6c4, 2023-07-21)"
   sodipodi:docname="turbomini-logo.svg"
   xmlns:inkscape="http://www.inkscape.org/namespaces/inkscape"
   xmlns:sodipodi="http://sodipodi.sourceforge.net/DTD/sodipodi-0.dtd"
   xmlns="http://www.w3.org/2000/svg"
   xmlns:svg="http://www.w3.org/2000/svg"><sodipodi:namedview
     id="namedview1"
     pagecolor="#ffffff"
     bordercolor="#000000"
     borderopacity="0.25"
     inkscape:showpageshadow="2"
     inkscape:pageopacity="0.0"
     inkscape:pagecheckerboard="0"
     inkscape:deskcolor="#d1d1d1"
     inkscape:document-units="mm"
     inkscape:zoom="0.82893869"
     inkscape:cx="351.05129"
     inkscape:cy="439.71889"
     inkscape:window-width="2262"
     inkscape:window-height="1381"
     inkscape:window-x="1781"
     inkscape:window-y="743"
     inkscape:window-maximized="0"
     inkscape:current-layer="layer1" /><defs
     id="defs1" /><g
     inkscape:label="Layer 1"
     inkscape:groupmode="layer"
     id="layer1"
     transform="translate(-8.8792699,-11.699063)"><path
       id="path1"
       style="opacity:1;fill:#1a1a1a;stroke:#fbf4e4;stroke-width:0.264583"
       d="m 50.349392,11.831373 c -10.706181,0.01064 -20.268883,4.53423 -27.607617,13.06484 l 5.665287,2.79311 c 20.485986,-18.8695004 43.236536,-6.3299 49.633142,4.62814 l 6.78254,-0.31936 c -3.12332,-6.28395 -13.254868,-19.70478 -32.316894,-20.10833 -0.72359,-0.03956 -1.442713,-0.05911 -2.156458,-0.0584 z M 9.0170309,22.821403 c -0.400657,28.31751 21.2946271,35.79226 27.9285281,36.94555 -6.610619,5.38082 -8.316829,11.09056 -9.176701,17.07647 -5.78368,-6.09471 -8.201107,-13.48435 -8.458398,-21.70462 l -5.585706,-6.304 c -0.108855,8.63353 -0.08697,14.52749 2.25671,20.16156 18.803299,45.201987 82.40857,19.92794 72.91131,-25.82685 l -5.26686,2.07481 c 2.01344,6.35659 -0.81848,22.99654 -10.967289,32.12724 -11.883393,10.69129 -31.962697,12.77478 -38.426079,1.38699 -0.982085,-4.22289 1.290869,-8.41104 2.672189,-10.82879 3.279391,-5.74003 9.366187,-8.76553 13.047265,-10.07794 1.794304,-4.04299 1.616088,-8.08599 1.117245,-12.12898 4.029723,-12.89332 12.490205,-13.37342 18.592663,-4.78782 l 4.388363,-0.47852 c -5.044668,4.60933 -4.827386,2.37105 -7.281726,8.69352 -1.348775,3.47451 -1.511265,7.23458 -2.966744,10.53114 -3.138386,7.10825 -8.794416,12.6435 -20.711914,12.6137 0.9579,1.68284 1.301101,3.58908 4.468461,4.46846 10.684208,0.92596 21.444616,-10.43436 22.729362,-17.93482 1.695699,-9.89965 1.867653,-16.07654 26.903784,-21.48396 -8.03276,-1.96409 -16.06603,-1.22075 -24.098787,-1.67586 -1.500832,-1.3732 -7.805286,-7.70327 -15.057479,-5.66633 -5.010212,1.40725 -8.308832,4.02072 -11.115084,11.65097 -7.321841,-7.44236 -16.452753,-9.79742 -24.946798,-13.71441 -5.252336,-2.42207 -7.636009,-3.31735 -12.9563151,-5.11751 z m 6.7825321,8.93744 c 7.798782,3.34088 14.021085,4.57991 23.539648,10.21384 0.06323,0.09683 7.030824,3.46059 7.101892,11.9693 -1.747959,0.58819 -3.80969,1.05084 -7.660514,0.79788 -18.931394,-5.65863 -20.637086,-15.85766 -22.981026,-22.98102 z m 48.515902,6.70295 a 2.8726492,2.832751 0 0 0 -2.872693,2.83238 2.8726492,2.832751 0 0 0 2.872693,2.8329 2.8726492,2.832751 0 0 0 2.872693,-2.8329 2.8726492,2.832751 0 0 0 -2.872693,-2.83238 z" /></g></svg>
